<svg width="24" height="25" viewBox="0 0 24 25" fill="none" xmlns="http://www.w3.org/2000/svg">
<rect width="24" height="24.9344" rx="12" fill="#838383"/>
<g clip-path="url(#clip0_2463_27763)">
<path d="M5 7.135C5 6.66701 5.15766 6.28092 5.47297 5.97673C5.78828 5.67254 6.1982 5.52045 6.7027 5.52045C7.1982 5.52045 7.59909 5.67019 7.90541 5.96971C8.22072 6.27859 8.37838 6.68105 8.37838 7.17712C8.37838 7.62639 8.22523 8.00077 7.91892 8.30029C7.60361 8.60916 7.18919 8.7636 6.67568 8.7636H6.66216C6.16666 8.7636 5.76577 8.60916 5.45946 8.30029C5.15315 7.99142 5 7.60299 5 7.135ZM5.17568 19.4197V10.0412H8.17568V19.4197H5.17568ZM9.83784 19.4197H12.8378V14.1829C12.8378 13.8553 12.8739 13.6026 12.9459 13.4248C13.0721 13.1065 13.2635 12.8374 13.5203 12.6175C13.777 12.3975 14.0991 12.2875 14.4865 12.2875C15.4955 12.2875 16 12.9942 16 14.4075V19.4197H19V14.0425C19 12.6572 18.6847 11.6066 18.0541 10.8906C17.4234 10.1746 16.5901 9.81657 15.5541 9.81657C14.3919 9.81657 13.4865 10.336 12.8378 11.375V11.403H12.8243L12.8378 11.375V10.0412H9.83784C9.85585 10.3407 9.86486 11.272 9.86486 12.8351C9.86486 14.3982 9.85585 16.593 9.83784 19.4197Z" fill="white"/>
</g>
<defs>
<clipPath id="clip0_2463_27763">
<rect x="5" y="5.19464" width="14" height="14.545" fill="white"/>
</clipPath>
</defs>
</svg>
