<svg width="71" height="33" viewBox="0 0 71 33" fill="none" xmlns="http://www.w3.org/2000/svg">
<path d="M47.7998 13.9265C47.8065 13.9396 47.8167 13.9506 47.8293 13.9582C47.8419 13.9658 47.8564 13.9697 47.8711 13.9695C47.8858 13.9692 47.9002 13.9649 47.9126 13.957C47.925 13.949 47.9349 13.9378 47.9412 13.9245L54.5319 0.107038C54.5451 0.0781162 54.5666 0.0536081 54.5939 0.0364409C54.6211 0.0192737 54.6529 0.0101743 54.6854 0.0102301H70.8934C70.9117 0.0103176 70.9296 0.0150677 70.9455 0.0240295C70.9615 0.0329912 70.9748 0.045866 70.9843 0.0614299C70.9938 0.0769939 70.9992 0.0947295 70.9999 0.11295C71.0006 0.13117 70.9967 0.149271 70.9884 0.165528L54.148 32.8748C54.1089 32.9488 54.0477 32.9857 53.9641 32.9857H41.5101C41.4401 32.9857 41.3896 32.9548 41.3586 32.893L31.6403 13.6905C31.63 13.6711 31.6146 13.6548 31.5957 13.6434C31.5768 13.632 31.5552 13.626 31.5332 13.626C26.7407 13.6206 21.9832 13.6213 17.2608 13.628C15.3919 13.632 14.2544 15.6428 14.8989 17.2583C15.4262 18.5753 16.4748 19.0876 17.8184 19.0856C22.3833 19.0775 26.4747 19.0708 30.0926 19.0654C30.1707 19.0654 30.2287 19.1004 30.2664 19.1703L37.5683 32.8688C37.6114 32.9481 37.5878 32.9878 37.4975 32.9878C30.9513 32.9743 24.3694 32.9783 17.7517 32.9999C16.2081 33.0039 14.9339 32.9225 13.9291 32.7558C10.3286 32.1602 7.22188 30.5245 4.60877 27.8488C-0.108964 23.0164 -1.35154 15.4432 1.56396 9.33615C3.86323 4.52394 8.38093 1.12958 13.624 0.240151C14.5844 0.0761137 15.8822 -0.00388849 17.5174 0.000145212C25.2853 0.0149354 33.0721 0.0162809 40.8777 0.00417978C40.968 0.00417978 41.0326 0.044518 41.0717 0.125192L47.7998 13.9265ZM47.9392 22.8349C47.9361 22.8409 47.9315 22.8458 47.9258 22.8493C47.9201 22.8528 47.9135 22.8546 47.9069 22.8546C47.9002 22.8546 47.8936 22.8528 47.8879 22.8493C47.8822 22.8458 47.8776 22.8409 47.8745 22.8349L38.6936 3.99956C38.6688 3.9489 38.63 3.9063 38.5818 3.87667C38.5335 3.84705 38.4777 3.83161 38.4209 3.83216C31.6389 3.85771 24.7357 3.85502 17.7113 3.8241C16.1017 3.81603 14.849 3.90275 13.9533 4.08427C6.59891 5.57069 2.09938 12.9947 4.44511 20.2675C5.87963 24.7146 9.58714 28.0243 14.216 28.9137C15.1467 29.0925 16.3624 29.1779 17.8629 29.1699C22.2742 29.147 26.6936 29.1436 31.121 29.1598C31.2059 29.1598 31.2281 29.1228 31.1877 29.0488L27.957 23.0023C27.9206 22.9351 27.8654 22.9015 27.7913 22.9015C24.362 22.9001 20.9845 22.9001 17.6588 22.9015C13.8866 22.9015 11.0095 20.1444 10.8782 16.4193C10.7752 13.503 12.6582 11.0041 15.3777 10.0945C16.0229 9.87935 16.9213 9.7738 18.073 9.77784C23.4406 9.798 28.6958 9.8007 33.8385 9.7859C33.9193 9.7859 33.9779 9.82154 34.0143 9.8928L43.7468 29.1033C43.754 29.1183 43.7654 29.131 43.7797 29.1399C43.794 29.1488 43.8106 29.1536 43.8276 29.1537H51.6406C51.7134 29.1537 51.7659 29.1214 51.7982 29.0569L64.719 3.95721C64.758 3.88057 64.7351 3.84225 64.6503 3.84225H57.0877C57.0298 3.84225 56.9881 3.86846 56.9625 3.9209L47.9392 22.8349Z" fill="#111111"/>
</svg>
