<svg width="24" height="24" viewBox="0 0 24 24" fill="none" xmlns="http://www.w3.org/2000/svg">
<rect width="24" height="24" rx="12" fill="#838383"/>
<path d="M9.80481 18.33C15.1268 18.33 18.0368 13.92 18.0368 10.098C18.0368 9.972 18.0368 9.846 18.0308 9.726C18.5948 9.318 19.0868 8.808 19.4768 8.226C18.9608 8.454 18.4028 8.61 17.8148 8.682C18.4148 8.322 18.8708 7.758 19.0868 7.08C18.5288 7.41 17.9108 7.65 17.2508 7.78199C16.7228 7.21799 15.9728 6.87 15.1388 6.87C13.5428 6.87 12.2468 8.166 12.2468 9.762C12.2468 9.99 12.2708 10.212 12.3248 10.422C9.91881 10.302 7.78881 9.15 6.36081 7.398C6.11481 7.824 5.97081 8.322 5.97081 8.85C5.97081 9.852 6.48081 10.74 7.26081 11.256C6.78681 11.244 6.34281 11.112 5.95281 10.896C5.95281 10.908 5.95281 10.92 5.95281 10.932C5.95281 12.336 6.94881 13.5 8.27481 13.77C8.03481 13.836 7.77681 13.872 7.51281 13.872C7.32681 13.872 7.14681 13.854 6.96681 13.818C7.33281 14.97 8.40081 15.804 9.66681 15.828C8.67681 16.602 7.42881 17.064 6.07281 17.064C5.83881 17.064 5.61081 17.052 5.38281 17.022C6.64881 17.85 8.17281 18.33 9.80481 18.33Z" fill="white"/>
</svg>
